<svg width="42" height="42" viewBox="0 0 42 42" fill="none" xmlns="http://www.w3.org/2000/svg">
<path d="M21 40.7178C31.8897 40.7178 40.7175 31.89 40.7175 21.0003C40.7175 10.1106 31.8897 1.28278 21 1.28278C10.1103 1.28278 1.28248 10.1106 1.28248 21.0003C1.28248 31.89 10.1103 40.7178 21 40.7178Z" fill="black"/>
<path d="M21 0C26.7904 0 32.0413 2.3489 35.8437 6.1513L35.8449 6.15512L35.8487 6.1563C39.6511 9.95869 42 15.2084 42 21C42 26.7904 39.6511 32.0413 35.8487 35.8437L35.8449 35.8449L35.8437 35.8487C32.0413 39.6511 26.7904 42 21 42C15.2084 42 9.95869 39.6511 6.1563 35.8487L6.15512 35.8449L6.1513 35.8437C2.3489 32.0413 0 26.7904 0 21C0 15.2084 2.3489 9.95869 6.1513 6.1563L6.15512 6.15512L6.1563 6.1513C9.95869 2.3489 15.2084 0 21 0ZM34.0343 7.96066C30.7044 4.62951 26.0934 2.56731 21 2.56731C15.9054 2.56731 11.2956 4.62951 7.96566 7.96066L7.96066 7.96566C4.62951 11.2956 2.56731 15.9054 2.56731 21C2.56731 26.0934 4.62951 30.7044 7.96066 34.0343L7.96566 34.0393C11.2956 37.3705 15.9054 39.4327 21 39.4327C26.0934 39.4327 30.7044 37.3705 34.0343 34.0393L34.0393 34.0343C37.3705 30.7044 39.4327 26.0934 39.4327 21C39.4327 15.9054 37.3705 11.2956 34.0393 7.96566L34.0343 7.96066Z" fill="#FF2E2E"/>
<path fill-rule="evenodd" clip-rule="evenodd" d="M31.384 25.6952C31.2675 25.3231 30.8719 25.115 30.5233 25.2316H30.501L22.0181 28.0193C21.4612 27.1363 20.4381 26.6253 19.3926 26.6948L15.5357 14.9826C15.1637 13.8441 14.1405 13.0305 12.9325 12.9151L11.3527 12.775C10.9571 12.7291 10.6086 13.0305 10.5862 13.4026C10.5627 13.7746 10.8417 14.1231 11.2138 14.1691L12.7936 14.3092C13.4435 14.3786 13.978 14.7966 14.1876 15.4242L18.0447 27.1598C16.6978 27.9958 16.3022 29.7619 17.1393 31.11C17.9753 32.4581 19.7411 32.8537 21.0892 32.0166C21.9958 31.4585 22.5068 30.4365 22.4138 29.391L30.8954 26.6017C31.291 26.4631 31.4994 26.0672 31.384 25.6952Z" fill="#FF2E2E"/>
<path fill-rule="evenodd" clip-rule="evenodd" d="M30.8024 22.4423L28.0838 14.1467C27.9449 13.7511 27.5257 13.5191 27.1077 13.6581L18.5098 16.4697C18.1154 16.6098 17.8823 17.0278 18.0224 17.4457L20.7407 25.7425C20.8796 26.1367 21.2988 26.3701 21.7167 26.2297L30.3149 23.4184C30.7094 23.2794 30.9425 22.8603 30.8024 22.4423Z" fill="#FF2E2E"/>
</svg>
