<svg width="42" height="42" viewBox="0 0 42 42" fill="none" xmlns="http://www.w3.org/2000/svg">
<g clip-path="url(#clip0_4_23)">
<path d="M20.9999 40.7181C31.8897 40.7181 40.7176 31.8902 40.7176 21.0004C40.7176 10.1106 31.8897 1.28271 20.9999 1.28271C10.1101 1.28271 1.28215 10.1106 1.28215 21.0004C1.28215 31.8902 10.1101 40.7181 20.9999 40.7181Z" fill="black"/>
<path d="M20.9999 -0.00112915C26.7909 -0.00112915 32.041 2.34919 35.844 6.15127L35.8454 6.15464L35.8487 6.15576C39.6508 9.95896 42.0011 15.2077 42.0011 20.9999C42.0011 26.7909 39.6508 32.041 35.8487 35.8439L35.8454 35.8454L35.844 35.8487C32.041 39.6508 26.7909 42.0011 20.9999 42.0011C15.2077 42.0011 9.95896 39.6508 6.15577 35.8487L6.15464 35.8454L6.15127 35.8439C2.3492 32.041 -0.00112334 26.7909 -0.00112334 20.9999C-0.00112334 15.2077 2.3492 9.95896 6.15127 6.15576L6.15464 6.15464L6.15577 6.15127C9.95896 2.34919 15.2077 -0.00112915 20.9999 -0.00112915ZM34.0347 7.96076C30.7039 4.62988 26.0928 2.56766 20.9999 2.56766C15.9058 2.56766 11.2961 4.62988 7.96526 7.96076L7.96077 7.96525C4.62988 11.2961 2.56766 15.9058 2.56766 20.9999C2.56766 26.0942 4.62988 30.7038 7.96077 34.0347L7.96526 34.0392C11.2961 37.3701 15.9058 39.4323 20.9999 39.4323C26.0942 39.4323 30.7039 37.3701 34.0347 34.0392L34.0392 34.0347C37.3701 30.7038 39.4323 26.0928 39.4323 20.9999C39.4323 15.9058 37.3701 11.2961 34.0392 7.96525L34.0347 7.96076Z" fill="#FF2E2E"/>
<path fill-rule="evenodd" clip-rule="evenodd" d="M31.5533 20.0232L28.2426 16.7126V12.8894C28.2426 12.1984 27.6816 11.6384 26.9905 11.6384C26.2997 11.6384 25.7387 12.1984 25.7387 12.8894V14.2098L23.2749 11.746C22.0571 10.5284 19.9381 10.5307 18.7228 11.7471L10.4467 20.0221C9.95896 20.511 9.95896 21.3034 10.4467 21.7926C10.9359 22.2814 11.7294 22.2814 12.2186 21.7926L20.4933 13.5165C20.7615 13.2497 21.2374 13.2497 21.5067 13.5165L29.7814 21.7926C30.0271 22.0369 30.3472 22.1587 30.6673 22.1587C30.9875 22.1587 31.3076 22.0369 31.5533 21.7926C32.041 21.3034 32.041 20.511 31.5533 20.0221V20.0232Z" fill="#FF2E2E"/>
<path fill-rule="evenodd" clip-rule="evenodd" d="M21.4359 15.8929C21.195 15.6531 20.805 15.6531 20.5641 15.8929L13.2862 23.1696C13.1716 23.2853 13.1068 23.4414 13.1068 23.6043V28.9123C13.1068 30.1571 14.1154 31.168 15.3613 31.168H18.9649V25.5862H23.0337V31.168H26.6373C27.8823 31.168 28.8921 30.1583 28.8921 28.9123V23.6043C28.8921 23.4414 28.8284 23.2853 28.7127 23.1696L21.4345 15.8929H21.4359Z" fill="#FF2E2E"/>
</g>
<defs>
<clipPath id="clip0_4_23">
<rect width="42" height="42" fill="white"/>
</clipPath>
</defs>
</svg>
