<svg width="42" height="42" viewBox="0 0 42 42" fill="none" xmlns="http://www.w3.org/2000/svg">
<g clip-path="url(#clip0_4_60)">
<path d="M20.9999 40.7181C31.8897 40.7181 40.7176 31.8902 40.7176 21.0004C40.7176 10.1106 31.8897 1.28271 20.9999 1.28271C10.1101 1.28271 1.28215 10.1106 1.28215 21.0004C1.28215 31.8902 10.1101 40.7181 20.9999 40.7181Z" fill="black"/>
<path d="M20.9999 -0.00109863C26.7909 -0.00109863 32.041 2.34922 35.844 6.1513L35.8454 6.15467L35.8487 6.15579C39.6508 9.95899 42.0011 15.2078 42.0011 20.9999C42.0011 26.7909 39.6508 32.0411 35.8487 35.844L35.8454 35.8454L35.844 35.8488C32.041 39.6508 26.7909 42.0011 20.9999 42.0011C15.2077 42.0011 9.95896 39.6508 6.15577 35.8488L6.15464 35.8454L6.15127 35.844C2.3492 32.0411 -0.00112152 26.7909 -0.00112152 20.9999C-0.00112152 15.2078 2.3492 9.95899 6.15127 6.15579L6.15464 6.15467L6.15577 6.1513C9.95896 2.34922 15.2077 -0.00109863 20.9999 -0.00109863ZM34.0347 7.96079C30.7039 4.62991 26.0928 2.56769 20.9999 2.56769C15.9058 2.56769 11.2961 4.62991 7.96526 7.96079L7.96077 7.96529C4.62988 11.2962 2.56767 15.9058 2.56767 20.9999C2.56767 26.0942 4.62988 30.7039 7.96077 34.0348L7.96526 34.0393C11.2961 37.3701 15.9058 39.4324 20.9999 39.4324C26.0942 39.4324 30.7039 37.3701 34.0347 34.0393L34.0392 34.0348C37.3701 30.7039 39.4323 26.0928 39.4323 20.9999C39.4323 15.9058 37.3701 11.2962 34.0392 7.96529L34.0347 7.96079Z" fill="#FF2E2E"/>
<path fill-rule="evenodd" clip-rule="evenodd" d="M26.9765 14.1721C28.2449 13.5035 29.2748 12.5446 29.9538 11.3975C30.0684 11.2026 30.0709 10.9617 29.9586 10.7657C29.8477 10.5686 29.6385 10.4481 29.413 10.4481H12.587C12.3615 10.4481 12.1523 10.5686 12.0414 10.7657C11.9291 10.9617 11.9316 11.2026 12.0462 11.3964C12.7252 12.5446 13.7551 13.5035 15.0235 14.1721C16.1125 14.745 17.341 15.0839 18.606 15.1642V16.7788H15.6343C14.524 16.7788 13.5839 17.6103 13.4493 18.7133L12.1796 29.0822C12.1026 29.7081 12.2989 30.3377 12.7156 30.8092C13.1337 31.2815 13.7349 31.5519 14.3645 31.5519H27.6355C28.2651 31.5519 28.866 31.2815 29.2841 30.8092C29.7011 30.3377 29.8971 29.7081 29.8204 29.0822L28.5507 18.7133C28.4162 17.6103 27.476 16.7788 26.3657 16.7788H23.394V15.1642C24.659 15.0839 25.8875 14.745 26.9765 14.1721ZM26.152 24.1654C26.152 27.0071 23.8405 29.3184 20.9999 29.3184C18.1595 29.3184 15.848 27.0071 15.848 24.1654C15.848 21.3247 18.1595 19.0135 20.9999 19.0135C23.8405 19.0135 26.152 21.3247 26.152 24.1654Z" fill="#FF2E2E"/>
<path fill-rule="evenodd" clip-rule="evenodd" d="M20.9999 20.2712C18.8528 20.2712 17.106 22.0181 17.106 24.1654C17.106 26.3138 18.8528 28.0607 20.9999 28.0607C23.1472 28.0607 24.8952 26.3138 24.8952 24.1654C24.8952 22.0181 23.1472 20.2712 20.9999 20.2712ZM21.4452 24.6107L19.9311 26.1237C19.8081 26.2464 19.6475 26.3079 19.4869 26.3079C19.3252 26.3079 19.1645 26.2464 19.0418 26.1237C18.7961 25.878 18.7961 25.4798 19.0418 25.2344L20.5559 23.7211C20.8016 23.4757 21.1995 23.4757 21.4452 23.7211C21.6898 23.9668 21.6898 24.365 21.4452 24.6107Z" fill="#FF2E2E"/>
</g>
<defs>
<clipPath id="clip0_4_60">
<rect width="42" height="42" fill="white"/>
</clipPath>
</defs>
</svg>
