<svg width="42" height="42" viewBox="0 0 42 42" fill="none" xmlns="http://www.w3.org/2000/svg">
<g clip-path="url(#clip0_4_35)">
<path d="M20.9999 40.7181C31.8897 40.7181 40.7176 31.8902 40.7176 21.0004C40.7176 10.1106 31.8897 1.28271 20.9999 1.28271C10.1101 1.28271 1.28215 10.1106 1.28215 21.0004C1.28215 31.8902 10.1101 40.7181 20.9999 40.7181Z" fill="black"/>
<path d="M20.9999 -0.00109863C26.7909 -0.00109863 32.041 2.34922 35.844 6.1513L35.8454 6.15467L35.8487 6.15579C39.6508 9.95899 42.0011 15.2078 42.0011 20.9999C42.0011 26.7909 39.6508 32.0411 35.8487 35.844L35.8454 35.8454L35.844 35.8488C32.041 39.6508 26.7909 42.0011 20.9999 42.0011C15.2077 42.0011 9.95896 39.6508 6.15577 35.8488L6.15464 35.8454L6.15127 35.844C2.3492 32.0411 -0.00112343 26.7909 -0.00112343 20.9999C-0.00112343 15.2078 2.3492 9.95899 6.15127 6.15579L6.15464 6.15467L6.15577 6.1513C9.95896 2.34922 15.2077 -0.00109863 20.9999 -0.00109863ZM34.0347 7.96079C30.7039 4.62991 26.0928 2.56769 20.9999 2.56769C15.9058 2.56769 11.2961 4.62991 7.96526 7.96079L7.96077 7.96529C4.62988 11.2962 2.56766 15.9058 2.56766 20.9999C2.56766 26.0942 4.62988 30.7039 7.96077 34.0348L7.96526 34.0393C11.2961 37.3701 15.9058 39.4324 20.9999 39.4324C26.0942 39.4324 30.7039 37.3701 34.0347 34.0393L34.0392 34.0348C37.3701 30.7039 39.4323 26.0928 39.4323 20.9999C39.4323 15.9058 37.3701 11.2962 34.0392 7.96529L34.0347 7.96079Z" fill="#FF2E2E"/>
<path fill-rule="evenodd" clip-rule="evenodd" d="M25.4292 13.5887V12.9495C25.4292 12.4124 24.9946 11.9763 24.456 11.9763H23.0197C23.1567 11.6988 23.2334 11.3989 23.2334 11.0763C23.2334 9.97921 22.3418 9.08148 21.2433 9.08148C20.1459 9.08148 19.2533 9.98033 19.2533 11.0788C19.2533 11.4012 19.3299 11.7 19.467 11.9777H17.5429C17.0054 11.9777 16.5696 12.4124 16.5696 12.9509V13.5887H14.1188C13.2483 13.5887 12.5409 14.2949 12.5409 15.1654V31.3419C12.5409 32.2146 13.2472 32.9197 14.1188 32.9197H27.8798C28.7514 32.9197 29.4568 32.2146 29.4568 31.3419V15.1654C29.4568 14.2949 28.7503 13.5887 27.8798 13.5887H25.4292ZM20.0575 11.0777C20.0575 10.4232 20.5902 9.88598 21.2433 9.88598C21.8965 9.88598 22.4291 10.4232 22.4291 11.0788C22.4291 11.4366 22.2708 11.7603 22.0217 11.9777H20.4661C20.2159 11.7603 20.0575 11.4355 20.0575 11.0777ZM27.8456 30.4902C27.8456 30.9414 27.4794 31.3099 27.0273 31.3099H14.9716C14.5192 31.3099 14.153 30.9426 14.153 30.4902V16.0182C14.153 15.5658 14.5192 15.1996 14.9716 15.1996H16.5696C16.5696 15.6439 16.9299 16.0052 17.3753 16.0052H24.6236C25.069 16.0052 25.4292 15.6439 25.4292 15.1996H27.0284C27.4794 15.1996 27.847 15.5647 27.847 16.0182V30.4902H27.8456Z" fill="#FF2E2E"/>
<path fill-rule="evenodd" clip-rule="evenodd" d="M20.3504 23.6622L19.369 22.6782C19.2592 22.5684 19.1078 22.5058 18.952 22.5058C18.795 22.5058 18.6462 22.5684 18.5338 22.6782L18.2303 22.9832C18 23.2134 18 23.5866 18.2303 23.8169L19.9547 25.5424C20.067 25.6547 20.2203 25.7174 20.3798 25.7137C20.5393 25.7126 20.6904 25.6466 20.8005 25.5295L23.7955 22.3536C24.0202 22.1175 24.0095 21.744 23.7719 21.5196L23.4591 21.2256C23.3457 21.117 23.1946 21.0602 23.0374 21.0639C22.8815 21.0684 22.7338 21.1358 22.6251 21.2492L20.3504 23.6622Z" fill="#FF2E2E"/>
<path fill-rule="evenodd" clip-rule="evenodd" d="M20.9987 17.204C17.7543 17.204 15.1145 19.8472 15.1145 23.0964C15.1145 26.3433 17.7543 28.9879 20.9987 28.9879C24.2434 28.9879 26.8844 26.3433 26.8844 23.0964C26.8844 19.8472 24.2445 17.204 20.9987 17.204ZM20.9987 27.3792C18.6414 27.3792 16.7232 25.4576 16.7232 23.0964C16.7232 20.7354 18.6414 18.8138 20.9987 18.8138C23.3564 18.8138 25.2745 20.7342 25.2745 23.0964C25.2745 25.4576 23.3564 27.3792 20.9987 27.3792Z" fill="#FF2E2E"/>
</g>
<defs>
<clipPath id="clip0_4_35">
<rect width="42" height="42" fill="white"/>
</clipPath>
</defs>
</svg>
