<svg width="394" height="66" viewBox="0 0 394 66" fill="none" xmlns="http://www.w3.org/2000/svg">
<g clip-path="url(#clip0_3_7)">
<path fill-rule="evenodd" clip-rule="evenodd" d="M11.3357 15.6128C12.3884 15.9779 13.9425 15.158 16.3299 12.4173C17.2323 12.7344 17.9403 13.4406 18.2474 14.9546C18.8364 17.839 17.9028 19.6881 16.6056 22.2254C15.1957 24.9961 13.7169 27.6232 14.3498 31.2377C11.7618 31.5428 9.38062 31.4651 7.21875 30.9624C5.99056 30.8606 4.97542 30.9325 4.22347 31.2137C3.45898 31.495 2.96395 31.9917 2.78223 32.7397C2.34359 35.5403 1.19686 37.3236 0.0187991 39.059C-0.0438637 40.4833 2.68518e-07 41.8596 0.576498 43.0206L0.90861 43.8344L1.059 45.6596C1.25952 48.1012 2.16813 50.1418 4.236 46.8325C4.44906 45.5699 4.24854 44.3072 3.64071 43.0445L2.68823 42.6316C2.74463 40.8543 2.93262 39.1368 3.54045 37.6228C4.01042 36.1447 4.8689 35.0855 6.16602 34.4811L7.49447 34.3375L6.71745 36.2405C6.53573 38.2512 6.26628 40.0823 5.53312 41.0398C5.11955 42.4521 5.30754 43.3258 6.08455 43.6848C6.68612 43.9182 7.23755 44.9714 7.74512 47.036C8.28402 48.2089 8.96078 48.8552 9.77539 48.9749C10.6276 48.7714 10.778 47.1617 10.4396 44.6004C9.78792 43.8404 9.13623 43.5352 8.47827 43.4694C8.59733 42.111 8.54093 40.7885 8.29028 39.5138C8.40934 37.928 8.89811 36.4439 10.3958 35.2112C10.9722 36.7072 13.46 37.3595 16.6056 37.7186L18.6735 35.672C24.1565 40.6389 30.5356 43.4874 36.7078 41.3211C37.159 41.6263 37.3345 42.8291 37.4911 44.9176C38.7507 46.647 39.9475 49.8187 41.1381 52.0867C42.0154 53.8341 41.8337 55.2763 40.9877 56.533C39.0828 57.3049 37.2593 58.4838 36.1313 59.7525C34.2953 59.8303 32.8979 59.9141 31.745 60.4826C30.9554 61.075 30.4792 61.817 30.3789 62.7386L31.3376 63.0917L30.2661 64.504C30.6484 65.7307 31.9016 66.0599 34.3517 65.9641L35.7742 63.6243L38.5063 62.8822C39.5089 60.9792 41.113 59.1361 44.5282 57.4845C46.8091 57.6041 48.0185 56.4372 47.8932 53.6725C46.7402 51.1711 46.3203 48.7714 47.373 46.5812C52.2106 43.7387 55.1996 39.3882 54.8362 34.511C62.55 32.5841 50.8383 51.5002 72.952 47.3412C74.2303 47.1018 75.5588 46.659 76.9749 46.1563C74.1175 45.6896 65.8962 43.7447 64.4487 40.4414C60.7453 35.4266 56.8665 31.7643 52.737 30.0288C49.936 26.6298 44.9919 25.3193 38.9136 25.1218C37.0964 24.9662 35.5047 24.5054 34.2577 23.5719C35.5173 15.0683 27.0014 10.8913 33.2238 13.5124C30.5732 7.34863 22.333 5.33793 28.1481 5.97824C25.1591 3.36912 21.3868 1.92692 16.0291 2.83652C14.8887 1.2507 12.1628 -2.14235 12.9963 1.92094L11.6302 0.754013L11.555 4.84722C9.93205 6.0321 9.04224 9.9757 7.78272 12.537C6.71118 13.5543 6.29761 14.7751 6.63599 16.6661C8.31535 18.7306 10.9597 18.222 11.3357 15.6128Z" fill="url(#paint0_linear_3_7)"/>
</g>
<path d="M92.6006 50.6045L103.074 20.4531H108.177L95.0176 56H91.3799L92.6006 50.6045ZM82.8105 20.4531L93.1865 50.6045L94.4805 56H90.8428L77.708 20.4531H82.8105ZM139.988 37.1035V39.3496C139.988 42.0189 139.655 44.4115 138.987 46.5273C138.32 48.6432 137.36 50.4417 136.106 51.9229C134.853 53.404 133.348 54.5352 131.59 55.3164C129.848 56.0977 127.895 56.4883 125.73 56.4883C123.631 56.4883 121.702 56.0977 119.944 55.3164C118.203 54.5352 116.689 53.404 115.403 51.9229C114.134 50.4417 113.149 48.6432 112.449 46.5273C111.749 44.4115 111.399 42.0189 111.399 39.3496V37.1035C111.399 34.4342 111.741 32.0498 112.425 29.9502C113.125 27.8343 114.109 26.0358 115.379 24.5547C116.648 23.0573 118.154 21.918 119.896 21.1367C121.653 20.3555 123.582 19.9648 125.682 19.9648C127.846 19.9648 129.799 20.3555 131.541 21.1367C133.299 21.918 134.804 23.0573 136.058 24.5547C137.327 26.0358 138.296 27.8343 138.963 29.9502C139.646 32.0498 139.988 34.4342 139.988 37.1035ZM135.325 39.3496V37.0547C135.325 34.9388 135.105 33.0671 134.666 31.4395C134.243 29.8118 133.616 28.4447 132.786 27.3379C131.956 26.2311 130.939 25.3929 129.734 24.8232C128.546 24.2536 127.195 23.9688 125.682 23.9688C124.217 23.9688 122.89 24.2536 121.702 24.8232C120.53 25.3929 119.521 26.2311 118.675 27.3379C117.845 28.4447 117.202 29.8118 116.746 31.4395C116.29 33.0671 116.062 34.9388 116.062 37.0547V39.3496C116.062 41.4818 116.29 43.3698 116.746 45.0137C117.202 46.6413 117.853 48.0166 118.699 49.1396C119.562 50.2464 120.579 51.0846 121.751 51.6543C122.939 52.224 124.266 52.5088 125.73 52.5088C127.26 52.5088 128.619 52.224 129.808 51.6543C130.996 51.0846 131.997 50.2464 132.811 49.1396C133.641 48.0166 134.267 46.6413 134.69 45.0137C135.114 43.3698 135.325 41.4818 135.325 39.3496ZM168.602 52.167V56H150.828V52.167H168.602ZM151.756 20.4531V56H147.044V20.4531H151.756ZM208.982 52.167V56H190.159V52.167H208.982ZM191.111 20.4531V56H186.399V20.4531H191.111ZM206.492 35.7363V39.5693H190.159V35.7363H206.492ZM208.738 20.4531V24.3105H190.159V20.4531H208.738ZM217.869 20.4531L226.414 34.0762L234.959 20.4531H240.452L229.222 38.0557L240.721 56H235.179L226.414 42.1084L217.649 56H212.107L223.606 38.0557L212.376 20.4531H217.869ZM259.275 42.0596H249.778V38.2266H259.275C261.115 38.2266 262.604 37.9336 263.743 37.3477C264.882 36.7617 265.713 35.9479 266.233 34.9062C266.771 33.8646 267.039 32.6764 267.039 31.3418C267.039 30.1211 266.771 28.9736 266.233 27.8994C265.713 26.8252 264.882 25.9626 263.743 25.3115C262.604 24.6442 261.115 24.3105 259.275 24.3105H250.877V56H246.165V20.4531H259.275C261.961 20.4531 264.231 20.917 266.087 21.8447C267.942 22.7725 269.35 24.0583 270.311 25.7021C271.271 27.3298 271.751 29.1934 271.751 31.293C271.751 33.5716 271.271 35.5166 270.311 37.1279C269.35 38.7393 267.942 39.9681 266.087 40.8145C264.231 41.6445 261.961 42.0596 259.275 42.0596ZM277.708 20.4531H289.476C292.145 20.4531 294.399 20.86 296.238 21.6738C298.094 22.4876 299.502 23.6921 300.462 25.2871C301.438 26.8659 301.927 28.8109 301.927 31.1221C301.927 32.7497 301.593 34.2389 300.926 35.5898C300.275 36.9245 299.331 38.0638 298.094 39.0078C296.873 39.9355 295.408 40.6273 293.699 41.083L292.381 41.5957H281.321L281.272 37.7627H289.622C291.315 37.7627 292.723 37.4697 293.846 36.8838C294.969 36.2816 295.815 35.4759 296.385 34.4668C296.954 33.4577 297.239 32.3428 297.239 31.1221C297.239 29.7549 296.971 28.5586 296.434 27.5332C295.896 26.5078 295.05 25.7184 293.895 25.165C292.755 24.5954 291.282 24.3105 289.476 24.3105H282.42V56H277.708V20.4531ZM298.484 56L289.842 39.8867L294.749 39.8623L303.514 55.707V56H298.484ZM331.102 52.167V56H312.278V52.167H331.102ZM313.23 20.4531V56H308.519V20.4531H313.23ZM328.611 35.7363V39.5693H312.278V35.7363H328.611ZM330.857 20.4531V24.3105H312.278V20.4531H330.857ZM355.882 47.0156C355.882 46.1855 355.752 45.4531 355.491 44.8184C355.247 44.1673 354.808 43.5814 354.173 43.0605C353.554 42.5397 352.692 42.0433 351.585 41.5713C350.494 41.0993 349.111 40.6191 347.435 40.1309C345.677 39.61 344.09 39.0322 342.674 38.3975C341.258 37.7464 340.045 37.0059 339.036 36.1758C338.027 35.3457 337.254 34.3936 336.717 33.3193C336.18 32.2451 335.911 31.0163 335.911 29.6328C335.911 28.2493 336.196 26.9717 336.766 25.7998C337.335 24.6279 338.149 23.6107 339.207 22.748C340.281 21.8691 341.559 21.1855 343.04 20.6973C344.521 20.209 346.173 19.9648 347.996 19.9648C350.665 19.9648 352.928 20.4775 354.783 21.5029C356.655 22.512 358.079 23.8385 359.056 25.4824C360.032 27.11 360.521 28.8516 360.521 30.707H355.833C355.833 29.3724 355.548 28.1924 354.979 27.167C354.409 26.1253 353.546 25.3115 352.391 24.7256C351.235 24.1234 349.77 23.8223 347.996 23.8223C346.32 23.8223 344.936 24.0745 343.846 24.5791C342.755 25.0837 341.941 25.7673 341.404 26.6299C340.883 27.4925 340.623 28.4772 340.623 29.584C340.623 30.3327 340.778 31.0163 341.087 31.6348C341.412 32.237 341.909 32.7985 342.576 33.3193C343.26 33.8402 344.122 34.3203 345.164 34.7598C346.222 35.1992 347.483 35.6224 348.948 36.0293C350.966 36.599 352.708 37.2337 354.173 37.9336C355.638 38.6335 356.842 39.4229 357.786 40.3018C358.746 41.1644 359.454 42.1491 359.91 43.2559C360.382 44.3464 360.618 45.5833 360.618 46.9668C360.618 48.4154 360.325 49.7256 359.739 50.8975C359.153 52.0693 358.315 53.0703 357.225 53.9004C356.134 54.7305 354.824 55.3734 353.294 55.8291C351.78 56.2686 350.088 56.4883 348.216 56.4883C346.572 56.4883 344.952 56.2604 343.357 55.8047C341.779 55.349 340.338 54.6654 339.036 53.7539C337.75 52.8424 336.717 51.7194 335.936 50.3848C335.171 49.0339 334.788 47.4714 334.788 45.6973H339.476C339.476 46.918 339.712 47.9678 340.184 48.8467C340.656 49.7093 341.299 50.4255 342.112 50.9951C342.942 51.5648 343.878 51.988 344.92 52.2646C345.978 52.5251 347.076 52.6553 348.216 52.6553C349.86 52.6553 351.251 52.4274 352.391 51.9717C353.53 51.516 354.393 50.8649 354.979 50.0186C355.581 49.1722 355.882 48.1712 355.882 47.0156ZM385.569 47.0156C385.569 46.1855 385.439 45.4531 385.179 44.8184C384.935 44.1673 384.495 43.5814 383.86 43.0605C383.242 42.5397 382.379 42.0433 381.272 41.5713C380.182 41.0993 378.799 40.6191 377.122 40.1309C375.364 39.61 373.777 39.0322 372.361 38.3975C370.945 37.7464 369.733 37.0059 368.724 36.1758C367.715 35.3457 366.941 34.3936 366.404 33.3193C365.867 32.2451 365.599 31.0163 365.599 29.6328C365.599 28.2493 365.883 26.9717 366.453 25.7998C367.023 24.6279 367.837 23.6107 368.895 22.748C369.969 21.8691 371.246 21.1855 372.728 20.6973C374.209 20.209 375.861 19.9648 377.684 19.9648C380.353 19.9648 382.615 20.4775 384.471 21.5029C386.342 22.512 387.767 23.8385 388.743 25.4824C389.72 27.11 390.208 28.8516 390.208 30.707H385.521C385.521 29.3724 385.236 28.1924 384.666 27.167C384.096 26.1253 383.234 25.3115 382.078 24.7256C380.923 24.1234 379.458 23.8223 377.684 23.8223C376.007 23.8223 374.624 24.0745 373.533 24.5791C372.443 25.0837 371.629 25.7673 371.092 26.6299C370.571 27.4925 370.311 28.4772 370.311 29.584C370.311 30.3327 370.465 31.0163 370.774 31.6348C371.1 32.237 371.596 32.7985 372.264 33.3193C372.947 33.8402 373.81 34.3203 374.852 34.7598C375.91 35.1992 377.171 35.6224 378.636 36.0293C380.654 36.599 382.396 37.2337 383.86 37.9336C385.325 38.6335 386.53 39.4229 387.474 40.3018C388.434 41.1644 389.142 42.1491 389.598 43.2559C390.07 44.3464 390.306 45.5833 390.306 46.9668C390.306 48.4154 390.013 49.7256 389.427 50.8975C388.841 52.0693 388.003 53.0703 386.912 53.9004C385.822 54.7305 384.511 55.3734 382.981 55.8291C381.468 56.2686 379.775 56.4883 377.903 56.4883C376.259 56.4883 374.64 56.2604 373.045 55.8047C371.466 55.349 370.026 54.6654 368.724 53.7539C367.438 52.8424 366.404 51.7194 365.623 50.3848C364.858 49.0339 364.476 47.4714 364.476 45.6973H369.163C369.163 46.918 369.399 47.9678 369.871 48.8467C370.343 49.7093 370.986 50.4255 371.8 50.9951C372.63 51.5648 373.566 51.988 374.607 52.2646C375.665 52.5251 376.764 52.6553 377.903 52.6553C379.547 52.6553 380.939 52.4274 382.078 51.9717C383.217 51.516 384.08 50.8649 384.666 50.0186C385.268 49.1722 385.569 48.1712 385.569 47.0156Z" fill="url(#paint1_linear_3_7)"/>
<defs>
<linearGradient id="paint0_linear_3_7" x1="38.4861" y1="-0.00256729" x2="38.4861" y2="65.9797" gradientUnits="userSpaceOnUse">
<stop stop-color="#FF2E2E"/>
<stop offset="1"/>
</linearGradient>
<linearGradient id="paint1_linear_3_7" x1="235.5" y1="9" x2="235.5" y2="58" gradientUnits="userSpaceOnUse">
<stop stop-color="#FF2E2E"/>
<stop offset="1"/>
</linearGradient>
<clipPath id="clip0_3_7">
<rect width="77" height="66" fill="white"/>
</clipPath>
</defs>
</svg>
