<svg width="42" height="42" viewBox="0 0 42 42" fill="none" xmlns="http://www.w3.org/2000/svg">
<g clip-path="url(#clip0_4_67)">
<path d="M20.9998 40.7181C31.8896 40.7181 40.7176 31.8902 40.7176 21.0004C40.7176 10.1106 31.8896 1.28271 20.9998 1.28271C10.1101 1.28271 1.28214 10.1106 1.28214 21.0004C1.28214 31.8902 10.1101 40.7181 20.9998 40.7181Z" fill="black"/>
<path d="M20.9999 -0.00109863C26.7909 -0.00109863 32.041 2.34922 35.8439 6.1513L35.8454 6.15467L35.8487 6.15579C39.6508 9.95899 42.0011 15.2078 42.0011 20.9999C42.0011 26.7909 39.6508 32.0411 35.8487 35.844L35.8454 35.8454L35.8439 35.8488C32.041 39.6508 26.7909 42.0011 20.9999 42.0011C15.2077 42.0011 9.95896 39.6508 6.15576 35.8488L6.15464 35.8454L6.15127 35.844C2.34919 32.0411 -0.00112915 26.7909 -0.00112915 20.9999C-0.00112915 15.2078 2.34919 9.95899 6.15127 6.15579L6.15464 6.15467L6.15576 6.1513C9.95896 2.34922 15.2077 -0.00109863 20.9999 -0.00109863ZM34.0347 7.96079C30.7038 4.62991 26.0928 2.56769 20.9999 2.56769C15.9058 2.56769 11.2961 4.62991 7.96525 7.96079L7.96076 7.96529C4.62988 11.2962 2.56766 15.9058 2.56766 20.9999C2.56766 26.0942 4.62988 30.7039 7.96076 34.0348L7.96525 34.0393C11.2961 37.3701 15.9058 39.4324 20.9999 39.4324C26.0942 39.4324 30.7038 37.3701 34.0347 34.0393L34.0392 34.0348C37.3701 30.7039 39.4323 26.0928 39.4323 20.9999C39.4323 15.9058 37.3701 11.2962 34.0392 7.96529L34.0347 7.96079Z" fill="#FF2E2E"/>
<path fill-rule="evenodd" clip-rule="evenodd" d="M29.5228 14.2451C29.5228 13.7647 29.3349 13.3109 28.9949 12.9709L27.2952 11.27C26.9599 10.9348 26.4825 10.7421 26.0091 10.7421H25.9052V14.3493H29.5228V14.2451Z" fill="#FF2E2E"/>
<path fill-rule="evenodd" clip-rule="evenodd" d="M24.8918 23.146C25.0075 22.7964 25.2083 22.4716 25.4694 22.207L29.5394 18.1548V15.5503H25.3158C24.9839 15.5503 24.7345 15.2822 24.7345 14.9491V10.7421H15.7182C14.7236 10.7421 13.9158 11.5511 13.9158 12.5457V29.4554C13.9158 30.45 14.7236 31.2579 15.7182 31.2579H27.7206C28.7138 31.2579 29.5394 30.45 29.5394 29.4554V24.9696L28.8792 25.6135C28.611 25.8791 28.2979 26.0729 27.9436 26.1897L26.0327 26.8288L25.7421 26.8442C25.2602 26.8442 24.8056 26.6103 24.522 26.218C24.242 25.8271 24.1654 25.3217 24.3178 24.8646L24.8918 23.146ZM16.9203 21.5609H22.911C23.244 21.5609 23.5122 21.8302 23.5122 22.1621C23.5122 22.494 23.244 22.7633 22.911 22.7633H16.9203C16.5884 22.7633 16.3191 22.494 16.3191 22.1621C16.3191 21.8302 16.5884 21.5609 16.9203 21.5609ZM16.3191 19.7587C16.3191 19.4257 16.5884 19.1575 16.9203 19.1575H22.911C23.244 19.1575 23.5122 19.4257 23.5122 19.7587C23.5122 20.0906 23.244 20.3588 22.911 20.3588L16.9203 20.3599C16.5884 20.3599 16.3191 20.0906 16.3191 19.7587ZM16.3191 24.5669C16.3191 24.2339 16.5884 23.9657 16.9203 23.9657H22.911C23.244 23.9657 23.5122 24.2339 23.5122 24.5669C23.5122 24.8988 23.244 25.1681 22.911 25.1681H16.9203C16.5884 25.1681 16.3191 24.8988 16.3191 24.5669ZM25.3158 27.5718C25.6477 27.5718 25.917 27.8411 25.917 28.1727C25.917 28.5046 25.6477 28.7739 25.3158 28.7739H21.7097C21.3767 28.7739 21.1085 28.5046 21.1085 28.1727C21.1085 27.8411 21.3767 27.5718 21.7097 27.5718H25.3158ZM16.9203 17.9551C16.5884 17.9551 16.3191 17.6858 16.3191 17.3539C16.3191 17.022 16.5884 16.7527 16.9203 16.7527H25.3158C25.6477 16.7527 25.917 17.022 25.917 17.3539C25.917 17.6858 25.6477 17.9551 25.3158 17.9551H16.9203Z" fill="#FF2E2E"/>
<path fill-rule="evenodd" clip-rule="evenodd" d="M25.9807 23.6776L25.4576 25.2462C25.3795 25.4812 25.6028 25.7044 25.8378 25.6264L27.4064 25.1032L25.9807 23.6776Z" fill="#FF2E2E"/>
<path fill-rule="evenodd" clip-rule="evenodd" d="M30.6485 18.7287L26.6906 22.6866L28.3973 24.3945C29.2925 23.4993 31.0335 21.7583 32.3564 20.4354L30.6485 18.7287Z" fill="#FF2E2E"/>
<path fill-rule="evenodd" clip-rule="evenodd" d="M34.0783 17.0043C33.8668 16.7917 33.5551 16.6713 33.2255 16.6713C32.8961 16.6713 32.5841 16.7917 32.3729 17.0054L31.4988 17.8784L33.2055 19.5863C33.6837 19.1078 34.0145 18.777 34.0794 18.7121C34.5483 18.2421 34.5483 17.4755 34.0783 17.0043Z" fill="#FF2E2E"/>
<path fill-rule="evenodd" clip-rule="evenodd" d="M34.0794 18.7122C34.0808 18.711 34.0819 18.7099 34.083 18.7088C34.0819 18.7099 34.0808 18.711 34.0794 18.7122Z" fill="#FF2E2E"/>
<path fill-rule="evenodd" clip-rule="evenodd" d="M34.083 18.7088C34.0842 18.7063 34.0867 18.704 34.0878 18.7029C34.0867 18.7051 34.0842 18.7063 34.083 18.7088Z" fill="#FF2E2E"/>
<path fill-rule="evenodd" clip-rule="evenodd" d="M34.0878 18.7029C34.0926 18.6992 34.0926 18.6992 34.0878 18.7029V18.7029Z" fill="#FF2E2E"/>
</g>
<defs>
<clipPath id="clip0_4_67">
<rect width="42" height="42" fill="white"/>
</clipPath>
</defs>
</svg>
