<svg width="42" height="42" viewBox="0 0 42 42" fill="none" xmlns="http://www.w3.org/2000/svg">
<g clip-path="url(#clip0_4_114)">
<path d="M20.9999 40.7181C31.8897 40.7181 40.7176 31.8902 40.7176 21.0004C40.7176 10.1106 31.8897 1.28271 20.9999 1.28271C10.1101 1.28271 1.28215 10.1106 1.28215 21.0004C1.28215 31.8902 10.1101 40.7181 20.9999 40.7181Z" fill="black"/>
<path d="M20.9999 -0.00109863C26.7909 -0.00109863 32.041 2.34922 35.844 6.1513L35.8454 6.15467L35.8487 6.15579C39.6508 9.95899 42.0011 15.2078 42.0011 20.9999C42.0011 26.7909 39.6508 32.0411 35.8487 35.844L35.8454 35.8454L35.844 35.8488C32.041 39.6508 26.7909 42.0011 20.9999 42.0011C15.2077 42.0011 9.95896 39.6508 6.15577 35.8488L6.15464 35.8454L6.15127 35.844C2.3492 32.0411 -0.00112152 26.7909 -0.00112152 20.9999C-0.00112152 15.2078 2.3492 9.95899 6.15127 6.15579L6.15464 6.15467L6.15577 6.1513C9.95896 2.34922 15.2077 -0.00109863 20.9999 -0.00109863ZM34.0347 7.96079C30.7039 4.62991 26.0928 2.56769 20.9999 2.56769C15.9058 2.56769 11.2961 4.62991 7.96526 7.96079L7.96077 7.96529C4.62988 11.2962 2.56767 15.9058 2.56767 20.9999C2.56767 26.0942 4.62988 30.7039 7.96077 34.0348L7.96526 34.0393C11.2961 37.3701 15.9058 39.4324 20.9999 39.4324C26.0942 39.4324 30.7039 37.3701 34.0347 34.0393L34.0392 34.0348C37.3701 30.7039 39.4323 26.0928 39.4323 20.9999C39.4323 15.9058 37.3701 11.2962 34.0392 7.96529L34.0347 7.96079Z" fill="#FF2E2E"/>
<path fill-rule="evenodd" clip-rule="evenodd" d="M20.9999 13.9062C21.9945 13.9062 22.8023 13.0972 22.8023 12.1026C22.8023 11.1094 21.9945 10.3004 20.9999 10.3004C20.0055 10.3004 19.1965 11.1094 19.1965 12.1026C19.1965 13.0972 20.0055 13.9062 20.9999 13.9062Z" fill="#FF2E2E"/>
<path fill-rule="evenodd" clip-rule="evenodd" d="M22.8686 14.4484C22.865 14.4473 22.403 14.3044 22.403 14.3044C22.2851 14.269 22.1587 14.276 22.0453 14.3254L20.9999 14.7815L19.9547 14.3254C19.8413 14.276 19.7149 14.269 19.597 14.3055C19.597 14.3055 19.135 14.4473 19.1314 14.4484C18.4005 14.6916 17.9091 15.3731 17.9091 16.1433V18.6613C17.9091 18.9449 18.1393 19.1763 18.4241 19.1763H23.5748C23.8596 19.1763 24.0909 18.9449 24.0909 18.6613V16.1433C24.0909 15.3731 23.5995 14.6916 22.8686 14.4484Z" fill="#FF2E2E"/>
<path fill-rule="evenodd" clip-rule="evenodd" d="M23.5759 20.2383H18.4241C18.1393 20.2383 17.9091 20.4686 17.9091 20.7531V31.1846C17.9091 31.4693 18.1393 31.6996 18.4241 31.6996H23.5759C23.8596 31.6996 24.0909 31.4693 24.0909 31.1846V20.7531C24.0909 20.4686 23.8596 20.2383 23.5759 20.2383Z" fill="#FF2E2E"/>
<path fill-rule="evenodd" clip-rule="evenodd" d="M28.1373 17.674C29.1319 17.674 29.9409 16.865 29.9409 15.8716C29.9409 14.8772 29.1319 14.0682 28.1373 14.0682C27.1441 14.0682 26.3351 14.8772 26.3351 15.8716C26.3351 16.865 27.1441 17.674 28.1373 17.674Z" fill="#FF2E2E"/>
<path fill-rule="evenodd" clip-rule="evenodd" d="M30.0072 18.2162C30.0024 18.2148 29.5405 18.0733 29.5405 18.0733C29.4226 18.0365 29.2962 18.0435 29.1839 18.0932L28.1373 18.5493L27.0922 18.0932C26.9798 18.0435 26.8535 18.0365 26.7355 18.0733C26.7355 18.0733 26.2725 18.2148 26.2689 18.2162C25.5379 18.4594 25.0476 19.1409 25.0476 19.9109V22.4291C25.0476 22.7139 25.2779 22.9441 25.5626 22.9441H30.7134C30.9981 22.9441 31.2284 22.7139 31.2284 22.4291V19.9109C31.2284 19.1409 30.737 18.4594 30.0072 18.2162Z" fill="#FF2E2E"/>
<path fill-rule="evenodd" clip-rule="evenodd" d="M30.7134 24.0059H25.5626C25.2779 24.0059 25.0476 24.2361 25.0476 24.5209V31.1846C25.0476 31.4693 25.2779 31.6996 25.5626 31.6996H30.7134C30.9981 31.6996 31.2284 31.4693 31.2284 31.1846V24.5209C31.2284 24.2361 30.9981 24.0059 30.7134 24.0059Z" fill="#FF2E2E"/>
<path fill-rule="evenodd" clip-rule="evenodd" d="M13.8613 21.1913C14.8559 21.1913 15.6649 20.3823 15.6649 19.3889C15.6649 18.3945 14.8559 17.5853 13.8613 17.5853C12.8681 17.5853 12.0591 18.3945 12.0591 19.3889C12.0591 20.3823 12.8681 21.1913 13.8613 21.1913Z" fill="#FF2E2E"/>
<path fill-rule="evenodd" clip-rule="evenodd" d="M15.7312 21.7336C15.7264 21.7322 15.2645 21.5906 15.2645 21.5906C15.1465 21.5538 15.0202 21.5609 14.9078 21.6106L13.8613 22.0666L12.8161 21.6106C12.7038 21.5609 12.5763 21.5538 12.4595 21.5906C12.4595 21.5906 11.9965 21.7322 11.9928 21.7336C11.2619 21.9767 10.7716 22.6582 10.7716 23.4282V25.9465C10.7716 26.2312 11.0019 26.4614 11.2866 26.4614H16.4374C16.7221 26.4614 16.9524 26.2298 16.9524 25.9465V23.4282C16.9524 22.6582 16.461 21.9767 15.7312 21.7336Z" fill="#FF2E2E"/>
<path fill-rule="evenodd" clip-rule="evenodd" d="M16.4374 27.5232H11.2866C11.0019 27.5232 10.7716 27.7535 10.7716 28.0382V31.1846C10.7716 31.4693 11.0019 31.6996 11.2866 31.6996H16.4374C16.7221 31.6996 16.9524 31.4693 16.9524 31.1846V28.0382C16.9524 27.7535 16.7221 27.5232 16.4374 27.5232Z" fill="#FF2E2E"/>
</g>
<defs>
<clipPath id="clip0_4_114">
<rect width="42" height="42" fill="white"/>
</clipPath>
</defs>
</svg>
