<svg width="42" height="42" viewBox="0 0 42 42" fill="none" xmlns="http://www.w3.org/2000/svg">
<g clip-path="url(#clip0_4_102)">
<path d="M20.9998 40.7181C31.8896 40.7181 40.7176 31.8902 40.7176 21.0004C40.7176 10.1106 31.8896 1.28271 20.9998 1.28271C10.1101 1.28271 1.28214 10.1106 1.28214 21.0004C1.28214 31.8902 10.1101 40.7181 20.9998 40.7181Z" fill="black"/>
<path d="M20.9999 -0.00109863C26.7909 -0.00109863 32.041 2.34922 35.8439 6.1513L35.8454 6.15467L35.8487 6.15579C39.6508 9.95899 42.0011 15.2078 42.0011 20.9999C42.0011 26.7909 39.6508 32.0411 35.8487 35.844L35.8454 35.8454L35.8439 35.8488C32.041 39.6508 26.7909 42.0011 20.9999 42.0011C15.2077 42.0011 9.95896 39.6508 6.15576 35.8488L6.15464 35.8454L6.15127 35.844C2.34919 32.0411 -0.00112915 26.7909 -0.00112915 20.9999C-0.00112915 15.2078 2.34919 9.95899 6.15127 6.15579L6.15464 6.15467L6.15576 6.1513C9.95896 2.34922 15.2077 -0.00109863 20.9999 -0.00109863ZM34.0347 7.96079C30.7038 4.62991 26.0928 2.56769 20.9999 2.56769C15.9058 2.56769 11.2961 4.62991 7.96525 7.96079L7.96076 7.96529C4.62988 11.2962 2.56766 15.9058 2.56766 20.9999C2.56766 26.0942 4.62988 30.7039 7.96076 34.0348L7.96525 34.0393C11.2961 37.3701 15.9058 39.4324 20.9999 39.4324C26.0942 39.4324 30.7038 37.3701 34.0347 34.0393L34.0392 34.0348C37.3701 30.7039 39.4323 26.0928 39.4323 20.9999C39.4323 15.9058 37.3701 11.2962 34.0392 7.96529L34.0347 7.96079Z" fill="#FF2E2E"/>
<path fill-rule="evenodd" clip-rule="evenodd" d="M24.3046 11.7449H22.8686C22.5968 10.9761 21.8611 10.4232 20.9987 10.4232C20.1378 10.4232 19.4021 10.9761 19.128 11.7449H17.694C17.3292 11.7449 17.0327 12.0414 17.0327 12.4062V15.0508C17.0327 15.4158 17.3292 15.7124 17.694 15.7124H24.3046C24.6697 15.7124 24.9662 15.4158 24.9662 15.0508V12.4062C24.9662 12.0414 24.6697 11.7449 24.3046 11.7449Z" fill="#FF2E2E"/>
<path fill-rule="evenodd" clip-rule="evenodd" d="M27.6105 13.0677H26.2877V15.0508C26.2877 16.1445 25.3984 17.0338 24.3046 17.0338H17.694C16.6005 17.0338 15.7109 16.1445 15.7109 15.0508V13.0677H14.3881C13.6594 13.0677 13.0666 13.6605 13.0666 14.3895V30.2551C13.0666 30.9967 13.6465 31.578 14.3881 31.578H27.6105C28.3524 31.578 28.9323 30.9967 28.9323 30.2551V14.3895C28.9323 13.6476 28.3524 13.0677 27.6105 13.0677ZM20.8064 24.7736L18.1618 27.4182C18.0318 27.5468 17.863 27.6105 17.694 27.6105C17.5252 27.6105 17.355 27.5468 17.2264 27.4182L15.9036 26.0965C15.6461 25.8378 15.6461 25.4186 15.9036 25.1611C16.1611 24.9036 16.5803 24.9036 16.8389 25.1611L17.694 26.015L19.8696 23.8394C20.1282 23.5807 20.5478 23.5807 20.805 23.8394C21.0625 24.0969 21.0639 24.515 20.8064 24.7736ZM20.8064 19.4847L18.1618 22.1293C18.0318 22.2579 17.863 22.3227 17.694 22.3227C17.5252 22.3227 17.355 22.2579 17.2264 22.1293L15.9036 20.8075C15.6461 20.55 15.6461 20.1308 15.9036 19.8722C16.1611 19.6147 16.5803 19.6147 16.8389 19.8722L17.694 20.7272L19.8696 18.5504C20.1282 18.2929 20.5478 18.2929 20.805 18.5504C21.0625 18.8079 21.0639 19.226 20.8064 19.4847ZM25.6264 26.2891H22.9832C22.6181 26.2891 22.3216 25.9926 22.3216 25.6275C22.3216 25.2627 22.6181 24.9673 22.9832 24.9673H25.6264C25.9914 24.9673 26.2877 25.2627 26.2877 25.6275C26.2877 25.9926 25.9914 26.2891 25.6264 26.2891ZM25.6264 20.9999H22.9832C22.6181 20.9999 22.3216 20.7048 22.3216 20.3397C22.3216 19.9749 22.6181 19.6784 22.9832 19.6784H25.6264C25.9914 19.6784 26.2877 19.9749 26.2877 20.3397C26.2877 20.7048 25.9914 20.9999 25.6264 20.9999Z" fill="#FF2E2E"/>
</g>
<defs>
<clipPath id="clip0_4_102">
<rect width="42" height="42" fill="white"/>
</clipPath>
</defs>
</svg>
