<svg width="42" height="42" viewBox="0 0 42 42" fill="none" xmlns="http://www.w3.org/2000/svg">
<g clip-path="url(#clip0_4_109)">
<path d="M20.9998 40.7181C31.8896 40.7181 40.7176 31.8902 40.7176 21.0004C40.7176 10.1106 31.8896 1.28271 20.9998 1.28271C10.1101 1.28271 1.28214 10.1106 1.28214 21.0004C1.28214 31.8902 10.1101 40.7181 20.9998 40.7181Z" fill="black"/>
<path d="M20.9999 -0.00109863C26.7909 -0.00109863 32.041 2.34922 35.8439 6.1513L35.8454 6.15467L35.8487 6.15579C39.6508 9.95899 42.0011 15.2078 42.0011 20.9999C42.0011 26.7909 39.6508 32.0411 35.8487 35.844L35.8454 35.8454L35.8439 35.8488C32.041 39.6508 26.7909 42.0011 20.9999 42.0011C15.2077 42.0011 9.95896 39.6508 6.15576 35.8488L6.15464 35.8454L6.15127 35.844C2.34919 32.0411 -0.00112915 26.7909 -0.00112915 20.9999C-0.00112915 15.2078 2.34919 9.95899 6.15127 6.15579L6.15464 6.15467L6.15576 6.1513C9.95896 2.34922 15.2077 -0.00109863 20.9999 -0.00109863ZM34.0347 7.96079C30.7038 4.62991 26.0928 2.56769 20.9999 2.56769C15.9058 2.56769 11.2961 4.62991 7.96525 7.96079L7.96076 7.96529C4.62988 11.2962 2.56766 15.9058 2.56766 20.9999C2.56766 26.0942 4.62988 30.7039 7.96076 34.0348L7.96525 34.0393C11.2961 37.3701 15.9058 39.4324 20.9999 39.4324C26.0942 39.4324 30.7038 37.3701 34.0347 34.0393L34.0392 34.0348C37.3701 30.7039 39.4323 26.0928 39.4323 20.9999C39.4323 15.9058 37.3701 11.2962 34.0392 7.96529L34.0347 7.96079Z" fill="#FF2E2E"/>
<path fill-rule="evenodd" clip-rule="evenodd" d="M32.6304 21.3686L30.7451 15.8458C30.6957 15.7003 30.5598 15.6037 30.4062 15.6037H25.37V12.6803C25.37 12.482 25.2094 12.3214 25.0111 12.3214H9.75932C9.56107 12.3214 9.40045 12.482 9.40045 12.6803V26.1852C9.40045 26.2796 9.43808 26.3706 9.50547 26.4379C9.57286 26.5051 9.66384 26.543 9.75932 26.543H10.9794C11.119 28.2957 12.5881 29.6787 14.3752 29.6787C16.1633 29.6787 17.6328 28.2946 17.772 26.5418L23.5428 26.5407C23.681 28.2946 25.1504 29.6787 26.9386 29.6787C28.7267 29.6787 30.1973 28.2946 30.3354 26.5407H32.2901C32.4886 26.5407 32.6493 26.3801 32.6493 26.1816V21.4854C32.6493 21.4453 32.6422 21.4062 32.6304 21.3686ZM14.3752 27.7903C13.5389 27.7903 12.8574 27.1088 12.8574 26.2714C12.8574 25.4338 13.5389 24.7523 14.3752 24.7523C15.2125 24.7523 15.894 25.4338 15.894 26.2714C15.894 27.1088 15.2125 27.7903 14.3752 27.7903ZM26.9386 27.7903C26.1012 27.7903 25.4208 27.1088 25.4208 26.2714C25.4208 25.4338 26.1012 24.7523 26.9386 24.7523C27.7759 24.7523 28.4574 25.4338 28.4574 26.2714C28.4574 27.1088 27.7759 27.7903 26.9386 27.7903ZM28.3395 22.0866L27.8529 20.609C27.8043 20.4613 27.6673 20.3622 27.5125 20.3622H27.5114L25.226 20.3647V17.8771H28.9466L30.3318 22.0855L28.3395 22.0866Z" fill="#FF2E2E"/>
</g>
<defs>
<clipPath id="clip0_4_109">
<rect width="42" height="42" fill="white"/>
</clipPath>
</defs>
</svg>
