<svg width="318" height="713" viewBox="0 0 318 713" fill="none" xmlns="http://www.w3.org/2000/svg">
<path fill-rule="evenodd" clip-rule="evenodd" d="M91.734 245.299C108.918 241.9 125.602 220.406 141.768 169.422C156.524 166.561 171.025 169.86 185.032 185.938C211.773 216.537 210.417 245.901 208.332 286.313C206.147 330.393 202.072 373.244 234.097 412.371C199.539 435.31 165.45 452.067 131.74 462.042C113.764 469.938 99.9022 478.355 91.0916 487.355C82.1042 496.449 78.2945 506.152 80.5109 516.574C92.2191 553.797 87.4374 583.946 81.9079 613.749C90.1249 631.486 99.5387 647.851 115.09 657.644L124.976 665.044L138.76 686.06C157.191 714.177 183.048 732.169 191.073 676.667C186.01 659.771 175.113 645.949 158.47 635.156L142.395 637.229C131.833 615.257 123.51 593.032 122.411 570.154C119.595 548.736 124.938 529.509 139.374 512.538L157.197 500.921L158.395 529.774C168.68 555.508 176.58 579.717 172.356 596.778C175.546 616.978 183.781 626.176 197.037 624.754C207.015 623.112 221.524 631.785 241.877 653.048C256.974 663.266 270.651 666.073 282.908 661.469C293.63 652.666 285.465 632.027 264.325 603.483C250.275 599.111 239.131 600.255 229.429 604.348C222.428 586.989 213.182 571.371 201.501 557.777C193.047 537.661 190.458 516.031 203.708 489.949C221.401 503.806 260.663 493.223 307.334 474.193L323.428 434.003C432.516 453.477 540.708 440.6 613.938 368.448C622.253 368.795 632.414 382.077 647.97 406.239C676.789 417.849 713.94 447.413 745.229 466.066C768.77 480.735 775.423 499.575 771.519 521.103C749.579 544.625 731.388 572.476 723.583 596.245C698.179 610.837 679.001 622.24 666.369 637.705C659.016 650.759 657.039 663.298 661.514 675.218L677.295 672.373L671.203 697.465C684.435 709.5 704.218 704.175 738.17 684.801L743.285 645.852L777.085 616.545C779.069 586.015 789.921 551.739 827.544 506.323C860.486 490.819 870.091 467.678 850.656 435.083C818.407 413.32 797.15 387.341 798.005 352.955C848.085 282.524 862.451 207.548 826.159 151.106C922.665 70.3975 878.323 386.847 1163.71 172.028C1180.21 159.622 1196.12 144.377 1212.89 127.754C1169.59 143.335 1041.19 180.864 999.658 151.566C915.37 118.283 837.249 102.705 767.904 112.357C706.67 91.9592 628.549 112.819 541.54 155.608C514.91 167.23 489.512 173.473 465.956 171.422C429.385 58.9392 282.56 71.5897 387.089 57.1199C310.31 2.07784 181.217 38.9487 267.343 3.48645C208.504 -5.93441 146.072 4.61827 76.3035 55.4755C50.0814 44.7225 -10.0539 23.8387 27.6678 66.9177L0.940131 62.9214L26.0352 113.117C10.7113 139.551 23.3584 193.988 21.9568 234.41C13.3413 254.712 15.3078 272.59 32.165 293.007C69.0485 305.559 103.102 279.734 91.734 245.299Z" fill="url(#paint0_linear_2_5)"/>
<defs>
<linearGradient id="paint0_linear_2_5" x1="374.964" y1="-145.89" x2="796.594" y2="654.256" gradientUnits="userSpaceOnUse">
<stop stop-color="#FF2E2E"/>
<stop offset="1"/>
</linearGradient>
</defs>
</svg>
